<?xml version="1.0" encoding="utf-8"?>
<!DOCTYPE svg PUBLIC "-//W3C//DTD SVG 1.1//EN" "http://www.w3.org/Graphics/SVG/1.1/DTD/svg11.dtd">
<svg version="1.1" id="Layer_1" xmlns="http://www.w3.org/2000/svg" xmlns:xlink="http://www.w3.org/1999/xlink" x="0px" y="0px" width="32px" height="32px" viewBox="0 0 32 32" enable-background="new 0 0 32 32" xml:space="preserve">
<defs>
	<rect width="1" height="32" id="vertical_line" fill-opacity="0.05"></rect>
	<rect width="32" height="1" id="horizontal_line" fill-opacity="0.05"></rect>
</defs>
<use xlink:href="#vertical_line" transform="translate(3.5,0)"></use>
<use xlink:href="#vertical_line" transform="translate(11.5,0)"></use>
<use xlink:href="#vertical_line" transform="translate(19.5,0)"></use>
<use xlink:href="#vertical_line" transform="translate(27.5,0)"></use>

<use xlink:href="#horizontal_line" transform="translate(0,3.5)"></use>
<use xlink:href="#horizontal_line" transform="translate(0,11.5)"></use>
<use xlink:href="#horizontal_line" transform="translate(0,19.5)"></use>
<use xlink:href="#horizontal_line" transform="translate(0,27.5)"></use>

<circle cx="12" cy="4" fill-opacity="0.2" r="2"></circle>
<circle cx="20" cy="4" fill-opacity="0.3" r="1"></circle>
<circle cx="28" cy="4" fill-opacity="0.2" r="2"></circle>
<circle cx="4" cy="4" fill-opacity="0.2" r="2"></circle>
<circle cx="12" cy="12" fill-opacity="0.2" r="2"></circle>
<circle cx="20" cy="12" fill-opacity="0.3" r="1"></circle>
<circle cx="28" cy="12" fill-opacity="0.3" r="1"></circle>
<circle cx="4" cy="12" fill-opacity="0.3" r="1.2"></circle>
<circle cx="12" cy="20" fill-opacity="0.3" r="1"></circle>
<circle cx="20" cy="20" fill-opacity="0.3" r="1"></circle>
<circle cx="28" cy="20" fill-opacity="0.3" r="1"></circle>
<circle cx="4" cy="20" fill-opacity="0.3" r="1.2"></circle>
<circle cx="12" cy="28" fill-opacity="0.3" r="1"></circle>
<circle cx="20" cy="28" fill-opacity="0.2" r="2"></circle>
<circle cx="28" cy="28" fill-opacity="0.3" r="1"></circle>
<circle cx="4" cy="28" fill-opacity="0.3" r="1"></circle>
</svg>
